<mxfile host="65bd71144e">
    <diagram id="H9RriqzbfN2NbzAnwhpj" name="Page-1">
        <mxGraphModel dx="558" dy="411" grid="1" gridSize="10" guides="1" tooltips="1" connect="1" arrows="1" fold="1" page="1" pageScale="1" pageWidth="850" pageHeight="1100" math="0" shadow="0">
            <root>
                <mxCell id="0"/>
                <mxCell id="1" parent="0"/>
                <mxCell id="2" value="Start" style="html=1;dashed=0;whiteSpace=wrap;shape=mxgraph.dfd.start" vertex="1" parent="1">
                    <mxGeometry x="385" y="10" width="80" height="30" as="geometry"/>
                </mxCell>
                <mxCell id="3" value="End" style="html=1;dashed=0;whiteSpace=wrap;shape=mxgraph.dfd.start" vertex="1" parent="1">
                    <mxGeometry x="385" y="1060" width="80" height="30" as="geometry"/>
                </mxCell>
            </root>
        </mxGraphModel>
    </diagram>
</mxfile>